<?xml version="1.0" encoding="UTF-8"?>
<!DOCTYPE svg PUBLIC "-//W3C//DTD SVG 1.1//EN" "http://www.w3.org/Graphics/SVG/1.1/DTD/svg11.dtd">
<svg xmlns="http://www.w3.org/2000/svg" version="1.1" width="1176px" height="507px" style="shape-rendering:geometricPrecision; text-rendering:geometricPrecision; image-rendering:optimizeQuality; fill-rule:evenodd; clip-rule:evenodd" xmlns:xlink="http://www.w3.org/1999/xlink">
<g><path style="opacity:1" fill="#fefefe" d="M -0.5,-0.5 C 391.5,-0.5 783.5,-0.5 1175.5,-0.5C 1175.5,168.5 1175.5,337.5 1175.5,506.5C 783.5,506.5 391.5,506.5 -0.5,506.5C -0.5,337.5 -0.5,168.5 -0.5,-0.5 Z"/></g>
<g><path style="opacity:1" fill="#ff9a68" d="M 258.5,12.5 C 278.296,11.15 293.129,19.15 303,36.5C 313.382,57.7673 316.382,80.1006 312,103.5C 307.172,133.164 298.839,161.83 287,189.5C 278.652,209.197 269.485,228.53 259.5,247.5C 259.833,247.833 260.167,248.167 260.5,248.5C 301.613,241.799 342.946,239.132 384.5,240.5C 409.494,185.791 440.994,135.458 479,89.5C 493.978,72.2609 512.811,62.2609 535.5,59.5C 540.202,59.6717 544.868,60.1717 549.5,61C 554.31,64.3547 554.644,68.0214 550.5,72C 536.825,69.8019 524.158,72.4685 512.5,80C 493.624,93.2093 477.79,109.376 465,128.5C 440.892,165.032 419.058,203.032 399.5,242.5C 413.027,245.404 426.027,250.238 438.5,257C 441.965,259.463 445.131,262.296 448,265.5C 449.239,270.694 447.239,273.694 442,274.5C 427.609,262.648 411.109,256.648 392.5,256.5C 376.42,289.24 362.587,322.906 351,357.5C 349.647,364.246 347.98,370.913 346,377.5C 344.085,388.852 344.085,400.185 346,411.5C 348.096,415.414 349.93,419.414 351.5,423.5C 351.026,427.815 348.693,429.648 344.5,429C 338.186,423.207 334.352,416.041 333,407.5C 331.287,388.441 333.287,369.775 339,351.5C 349.058,318.053 361.891,285.72 377.5,254.5C 345.391,252.616 313.391,253.782 281.5,258C 271.814,259.168 262.147,260.502 252.5,262C 230.292,300.93 206.459,338.763 181,375.5C 164.068,399.112 144.901,420.945 123.5,441C 110.704,452.735 96.0371,461.402 79.5,467C 68.795,469.664 58.4616,468.664 48.5,464C 43.2035,460.234 43.2035,456.567 48.5,453C 52.0445,452.429 55.3779,453.096 58.5,455C 72.2513,456.753 84.918,453.753 96.5,446C 122,427.167 144.167,405 163,379.5C 188.675,343.506 211.841,305.839 232.5,266.5C 231.333,266.167 230.167,265.833 229,265.5C 222.846,266.427 216.679,267.26 210.5,268C 176.296,274.241 141.963,279.575 107.5,284C 94.8467,285.054 82.18,285.888 69.5,286.5C 59.3334,287.121 49.6667,285.287 40.5,281C 35.139,277.118 32.9723,271.951 34,265.5C 36.2103,262.71 39.0437,261.877 42.5,263C 44.5,266 46.5,269 48.5,272C 50.7885,272.822 53.1218,273.489 55.5,274C 85.7102,274.414 115.71,272.08 145.5,267C 177.424,261.874 209.257,256.374 241,250.5C 264.85,205.612 283.183,158.612 296,109.5C 299.262,93.6517 300.262,77.6517 299,61.5C 297.402,48.9163 291.902,38.4163 282.5,30C 273.989,25.7495 264.989,24.4162 255.5,26C 247.67,28.2483 240.337,31.5817 233.5,36C 189.282,68.5764 157.782,110.743 139,162.5C 133.396,180.83 134.562,198.663 142.5,216C 141.132,220.519 138.132,222.185 133.5,221C 124.716,207.084 121.549,191.917 124,175.5C 128.652,148.864 138.318,124.197 153,101.5C 173.548,67.2848 201.048,40.1182 235.5,20C 242.991,16.5576 250.658,14.0576 258.5,12.5 Z"/></g>
<g><path style="opacity:1" fill="#ff9b69" d="M 920.5,95.5 C 929.669,94.7148 936.835,98.0481 942,105.5C 944.454,116.126 943.454,126.459 939,136.5C 918.876,181.22 889.71,219.053 851.5,250C 840.705,258.121 829.372,265.455 817.5,272C 814.912,276.653 813.079,281.487 812,286.5C 826.663,274.28 843.496,268.446 862.5,269C 866.722,270.026 870.222,272.193 873,275.5C 878.335,285.827 881.668,296.827 883,308.5C 883.785,312.783 886.285,315.116 890.5,315.5C 901.798,313.183 912.132,308.683 921.5,302C 934.719,292.454 947.052,281.788 958.5,270C 963.079,268.423 966.079,269.923 967.5,274.5C 950.181,294.647 929.514,310.48 905.5,322C 897.249,326.051 888.915,326.385 880.5,323C 877.567,320.736 875.4,317.902 874,314.5C 871.178,305.546 868.511,296.546 866,287.5C 863.947,282.022 859.947,279.688 854,280.5C 833.192,284.404 815.526,294.071 801,309.5C 798.551,315.563 795.718,321.397 792.5,327C 787.18,328.832 784.513,326.999 784.5,321.5C 785.364,315.107 787.864,309.44 792,304.5C 793.769,300.526 795.103,296.526 796,292.5C 776.746,306.878 755.58,317.711 732.5,325C 712.925,329.806 701.758,322.306 699,302.5C 683.246,317.258 666.079,330.091 647.5,341C 642.297,343.013 636.963,344.513 631.5,345.5C 623.135,344.968 617.968,340.634 616,332.5C 614.545,325.556 614.212,318.556 615,311.5C 616.454,304.433 617.787,297.433 619,290.5C 602.417,305.215 583.917,317.049 563.5,326C 554.579,329.884 545.579,330.217 536.5,327C 529.545,321.837 526.212,314.837 526.5,306C 527.159,298.549 528.659,291.382 531,284.5C 520.91,292.296 509.744,298.129 497.5,302C 486.524,304.351 480.191,300.018 478.5,289C 482.936,273.227 492.936,262.561 508.5,257C 515.612,255.644 522.279,256.644 528.5,260C 534.198,265.051 533.532,268.884 526.5,271.5C 523.863,270.067 521.53,268.234 519.5,266C 517.833,265.333 516.167,265.333 514.5,266C 504.157,270.676 495.99,277.842 490,287.5C 488.76,290.906 489.927,292.573 493.5,292.5C 500.963,290.767 507.963,287.934 514.5,284C 527.01,275.485 539.51,266.985 552,258.5C 556.295,259.967 557.628,262.967 556,267.5C 546.862,279.775 541.028,293.441 538.5,308.5C 538.059,312.18 539.059,315.347 541.5,318C 551.033,319.268 560.033,317.602 568.5,313C 589.343,301.491 608.51,287.657 626,271.5C 635.149,248.203 645.649,225.536 657.5,203.5C 644.681,198.236 631.347,195.736 617.5,196C 614.763,198.136 611.763,199.136 608.5,199C 605.209,196.668 604.709,193.835 607,190.5C 611.176,187.059 616.009,185.726 621.5,186.5C 634.979,187.163 648.146,189.496 661,193.5C 661.833,193.167 662.667,192.833 663.5,192.5C 666.799,186.04 670.299,179.706 674,173.5C 678.388,170.386 681.554,171.22 683.5,176C 680.781,182.773 677.781,189.439 674.5,196C 693.588,203.983 713.588,206.983 734.5,205C 742.324,203.836 747.824,199.669 751,192.5C 756.667,187.833 759.667,189.167 760,196.5C 754.936,207.964 746.103,214.464 733.5,216C 711.375,217.902 690.042,214.735 669.5,206.5C 650.61,240.658 636.11,276.658 626,314.5C 625.139,320.585 625.473,326.585 627,332.5C 629.841,334.504 633.007,335.004 636.5,334C 643.058,332.054 649.058,329.054 654.5,325C 678.412,307.866 700.079,288.199 719.5,266C 726.699,258.822 735.365,255.822 745.5,257C 752.974,260.448 756.474,266.281 756,274.5C 750.051,278.212 746.384,276.546 745,269.5C 743.938,268.101 742.605,267.101 741,266.5C 728.528,272.645 719.861,282.312 715,295.5C 707.486,311.629 712.32,318.129 729.5,315C 758.485,305.932 783.985,291.099 806,270.5C 827.106,219.816 852.773,171.816 883,126.5C 890.542,115.957 899.709,107.124 910.5,100C 913.893,98.38 917.226,96.88 920.5,95.5 Z"/></g>
<g><path style="opacity:1" fill="#fffdfc" d="M 920.5,105.5 C 931.969,105.495 936.135,111.162 933,122.5C 927.813,138.874 920.48,154.207 911,168.5C 888.777,203.223 860.611,232.223 826.5,255.5C 847.027,207.454 872.527,162.12 903,119.5C 907.89,113.421 913.723,108.754 920.5,105.5 Z"/></g>
<g><path style="opacity:1" fill="#454242" d="M 974.5,351.5 C 976.5,351.5 978.5,351.5 980.5,351.5C 980.5,354.5 980.5,357.5 980.5,360.5C 978.5,360.5 976.5,360.5 974.5,360.5C 974.5,357.5 974.5,354.5 974.5,351.5 Z"/></g>
<g><path style="opacity:1" fill="#454242" d="M 504.5,354.5 C 509.833,354.5 515.167,354.5 520.5,354.5C 520.5,370.5 520.5,386.5 520.5,402.5C 525.833,402.5 531.167,402.5 536.5,402.5C 536.5,403.5 536.5,404.5 536.5,405.5C 524.833,405.5 513.167,405.5 501.5,405.5C 501.5,404.5 501.5,403.5 501.5,402.5C 506.5,402.5 511.5,402.5 516.5,402.5C 516.5,387.5 516.5,372.5 516.5,357.5C 512.5,357.5 508.5,357.5 504.5,357.5C 504.5,356.5 504.5,355.5 504.5,354.5 Z"/></g>
<g><path style="opacity:1" fill="#403d3d" d="M 562.5,354.5 C 567.833,354.5 573.167,354.5 578.5,354.5C 578.5,370.5 578.5,386.5 578.5,402.5C 583.5,402.5 588.5,402.5 593.5,402.5C 593.5,403.5 593.5,404.5 593.5,405.5C 581.833,405.5 570.167,405.5 558.5,405.5C 558.5,404.5 558.5,403.5 558.5,402.5C 563.833,402.5 569.167,402.5 574.5,402.5C 574.5,387.5 574.5,372.5 574.5,357.5C 570.5,357.5 566.5,357.5 562.5,357.5C 562.5,356.5 562.5,355.5 562.5,354.5 Z"/></g>
<g><path style="opacity:1" fill="#444141" d="M 667.5,354.5 C 671.167,354.5 674.833,354.5 678.5,354.5C 678.17,361.2 678.503,367.866 679.5,374.5C 687.698,367.049 696.364,366.549 705.5,373C 715.311,386.528 712.977,397.528 698.5,406C 691.019,407.92 684.686,406.087 679.5,400.5C 678.548,402.045 678.215,403.712 678.5,405.5C 674.833,405.5 671.167,405.5 667.5,405.5C 667.5,404.5 667.5,403.5 667.5,402.5C 669.833,402.5 672.167,402.5 674.5,402.5C 674.5,387.5 674.5,372.5 674.5,357.5C 672.167,357.5 669.833,357.5 667.5,357.5C 667.5,356.5 667.5,355.5 667.5,354.5 Z"/></g>
<g><path style="opacity:1" fill="#474444" d="M 398.5,356.5 C 405.771,355.409 412.271,357.076 418,361.5C 418.49,360.207 418.657,358.873 418.5,357.5C 419.833,357.5 421.167,357.5 422.5,357.5C 422.5,362.167 422.5,366.833 422.5,371.5C 419.234,371.567 417.734,369.901 418,366.5C 408.968,357.235 399.968,357.235 391,366.5C 386.717,375.659 386.384,384.992 390,394.5C 399.963,406.279 410.13,406.446 420.5,395C 421.448,394.517 422.448,394.351 423.5,394.5C 420.295,402.451 414.295,406.451 405.5,406.5C 395.115,405.63 387.949,400.297 384,390.5C 379.907,375.047 384.74,363.714 398.5,356.5 Z"/></g>
<g><path style="opacity:1" fill="#474444" d="M 910.5,357.5 C 911.822,357.33 912.989,357.663 914,358.5C 914.499,362.152 914.665,365.818 914.5,369.5C 921.167,369.5 927.833,369.5 934.5,369.5C 934.5,370.5 934.5,371.5 934.5,372.5C 927.833,372.5 921.167,372.5 914.5,372.5C 914.334,381.506 914.5,390.506 915,399.5C 917.565,402.108 920.731,403.442 924.5,403.5C 929.942,402.473 935.275,401.14 940.5,399.5C 939.711,402.434 937.711,404.268 934.5,405C 927.634,407.23 920.968,406.897 914.5,404C 912.951,402.786 911.785,401.286 911,399.5C 910.5,390.506 910.334,381.506 910.5,372.5C 907.5,372.5 904.5,372.5 901.5,372.5C 901.5,371.5 901.5,370.5 901.5,369.5C 904.5,369.5 907.5,369.5 910.5,369.5C 910.5,365.5 910.5,361.5 910.5,357.5 Z"/></g>
<g><path style="opacity:1" fill="#464343" d="M 455.5,368.5 C 466.91,366.903 475.076,371.236 480,381.5C 481.91,396.421 475.41,404.754 460.5,406.5C 446.658,404.485 440.491,396.485 442,382.5C 444.713,375.956 449.213,371.289 455.5,368.5 Z"/></g>
<g><path style="opacity:1" fill="#464444" d="M 626.5,368.5 C 632.892,367.791 638.892,368.957 644.5,372C 645.211,373.255 646.044,374.421 647,375.5C 647.5,384.494 647.666,393.494 647.5,402.5C 649.833,402.5 652.167,402.5 654.5,402.5C 654.5,403.5 654.5,404.5 654.5,405.5C 650.833,405.5 647.167,405.5 643.5,405.5C 643.762,404.022 643.429,402.689 642.5,401.5C 632.931,408.459 623.765,408.126 615,400.5C 612.834,393.001 615.334,387.834 622.5,385C 629.446,383.209 636.446,383.042 643.5,384.5C 645.222,375.384 641.389,371.05 632,371.5C 627.431,372.268 622.931,373.268 618.5,374.5C 618.33,373.178 618.663,372.011 619.5,371C 622.004,370.302 624.337,369.469 626.5,368.5 Z"/></g>
<g><path style="opacity:1" fill="#474545" d="M 742.5,368.5 C 760.681,367.18 768.848,375.513 767,393.5C 762.256,404.123 754.089,408.29 742.5,406C 730.266,400.289 726.433,391.122 731,378.5C 733.794,373.866 737.627,370.533 742.5,368.5 Z"/></g>
<g><path style="opacity:1" fill="#454242" d="M 814.5,368.5 C 817.607,368.351 820.607,368.851 823.5,370C 825.607,371.264 826.607,373.097 826.5,375.5C 823.86,375.046 821.527,373.879 819.5,372C 818.167,371.333 816.833,371.333 815.5,372C 811.049,374.783 806.883,377.95 803,381.5C 802.5,388.492 802.334,395.492 802.5,402.5C 808.167,402.5 813.833,402.5 819.5,402.5C 819.5,403.5 819.5,404.5 819.5,405.5C 808.833,405.5 798.167,405.5 787.5,405.5C 787.5,404.5 787.5,403.5 787.5,402.5C 791.167,402.5 794.833,402.5 798.5,402.5C 798.5,392.5 798.5,382.5 798.5,372.5C 795.5,372.5 792.5,372.5 789.5,372.5C 789.5,371.5 789.5,370.5 789.5,369.5C 793.833,369.5 798.167,369.5 802.5,369.5C 802.336,372.187 802.503,374.854 803,377.5C 806.449,373.877 810.283,370.877 814.5,368.5 Z"/></g>
<g><path style="opacity:1" fill="#484545" d="M 868.5,383.5 C 869.919,384.451 871.585,384.784 873.5,384.5C 873.806,381.615 873.473,378.948 872.5,376.5C 872.586,375.504 872.252,374.671 871.5,374C 868.845,372.559 866.012,371.726 863,371.5C 858.082,372.184 853.248,373.184 848.5,374.5C 848.33,373.178 848.663,372.011 849.5,371C 857.209,367.781 864.875,367.781 872.5,371C 874.378,372.543 875.878,374.376 877,376.5C 877.5,385.16 877.666,393.827 877.5,402.5C 879.5,402.5 881.5,402.5 883.5,402.5C 883.5,403.5 883.5,404.5 883.5,405.5C 880.167,405.5 876.833,405.5 873.5,405.5C 873.762,404.022 873.429,402.689 872.5,401.5C 864.072,407.426 855.406,407.926 846.5,403C 841.338,393.635 844.005,387.302 854.5,384C 859.155,383.501 863.821,383.334 868.5,383.5 Z"/></g>
<g><path style="opacity:1" fill="#444141" d="M 1086.5,368.5 C 1102.11,366.466 1110.44,373.133 1111.5,388.5C 1100.17,388.5 1088.83,388.5 1077.5,388.5C 1077.9,395.792 1081.57,400.625 1088.5,403C 1092.17,403.667 1095.83,403.667 1099.5,403C 1103.71,401.39 1107.71,399.556 1111.5,397.5C 1111.61,399.903 1110.61,401.736 1108.5,403C 1096.14,409.215 1085.31,407.382 1076,397.5C 1070,384.195 1073.5,374.529 1086.5,368.5 Z"/></g>
<g><path style="opacity:1" fill="#403d3d" d="M 964.5,369.5 C 969.833,369.5 975.167,369.5 980.5,369.5C 980.5,380.5 980.5,391.5 980.5,402.5C 985.511,402.334 990.511,402.501 995.5,403C 996.833,403.667 996.833,404.333 995.5,405C 983.838,405.5 972.171,405.667 960.5,405.5C 960.5,404.5 960.5,403.5 960.5,402.5C 965.833,402.5 971.167,402.5 976.5,402.5C 976.5,392.5 976.5,382.5 976.5,372.5C 972.5,372.5 968.5,372.5 964.5,372.5C 964.5,371.5 964.5,370.5 964.5,369.5 Z"/></g>
<g><path style="opacity:1" fill="#454242" d="M 1012.5,369.5 C 1018.5,369.5 1024.5,369.5 1030.5,369.5C 1030.5,370.5 1030.5,371.5 1030.5,372.5C 1027.81,372.336 1025.15,372.503 1022.5,373C 1026.87,382.908 1031.37,392.742 1036,402.5C 1040.3,392.74 1044.46,382.906 1048.5,373C 1045.85,372.503 1043.19,372.336 1040.5,372.5C 1040.5,371.5 1040.5,370.5 1040.5,369.5C 1046.5,369.5 1052.5,369.5 1058.5,369.5C 1058.5,370.5 1058.5,371.5 1058.5,372.5C 1056.4,372.201 1054.4,372.534 1052.5,373.5C 1047.97,383.752 1043.64,394.085 1039.5,404.5C 1037.17,405.833 1034.83,405.833 1032.5,404.5C 1028,394.167 1023.5,383.833 1019,373.5C 1016.96,372.577 1014.79,372.244 1012.5,372.5C 1012.5,371.5 1012.5,370.5 1012.5,369.5 Z"/></g>
<g><path style="opacity:1" fill="#fbfbfb" d="M 456.5,371.5 C 473.592,372.079 479.425,380.412 474,396.5C 465.3,405.757 456.634,405.757 448,396.5C 442.89,385.4 445.723,377.066 456.5,371.5 Z"/></g>
<g><path style="opacity:1" fill="#fbfafa" d="M 688.5,371.5 C 702.481,371.408 708.648,378.408 707,392.5C 701.059,404.533 692.726,406.533 682,398.5C 675.575,387.179 677.742,378.179 688.5,371.5 Z"/></g>
<g><path style="opacity:1" fill="#fafafa" d="M 743.5,371.5 C 760.006,371.508 766.173,379.508 762,395.5C 754.029,405.275 745.363,405.941 736,397.5C 729.903,386.294 732.403,377.628 743.5,371.5 Z"/></g>
<g><path style="opacity:1" fill="#fafafa" d="M 1087.5,371.5 C 1096.59,369.959 1103.09,373.293 1107,381.5C 1107.49,382.793 1107.66,384.127 1107.5,385.5C 1097.5,385.5 1087.5,385.5 1077.5,385.5C 1078.14,378.868 1081.47,374.202 1087.5,371.5 Z"/></g>
<g><path style="opacity:1" fill="#aaa8a8" d="M 872.5,376.5 C 873.473,378.948 873.806,381.615 873.5,384.5C 871.585,384.784 869.919,384.451 868.5,383.5C 869.833,383.5 871.167,383.5 872.5,383.5C 872.5,381.167 872.5,378.833 872.5,376.5 Z"/></g>
<g><path style="opacity:1" fill="#fafafa" d="M 626.5,386.5 C 631.897,386.215 637.23,386.549 642.5,387.5C 645,393.645 643.334,398.145 637.5,401C 630.88,404.695 624.714,404.195 619,399.5C 618.333,397.167 618.333,394.833 619,392.5C 621.086,389.906 623.586,387.906 626.5,386.5 Z"/></g>
<g><path style="opacity:1" fill="#f7f7f7" d="M 856.5,386.5 C 862.181,386.635 867.848,386.968 873.5,387.5C 873.665,390.518 873.498,393.518 873,396.5C 866.064,403.496 858.23,404.996 849.5,401C 847.092,397.957 846.926,394.791 849,391.5C 851.479,389.686 853.979,388.019 856.5,386.5 Z"/></g>
</svg>
